Coordinates
version=1
nRows=64
nColumns=11
inDegrees=yes

Units are S.I. units (second, meters, Newtons, ...)
If the header above contains a line with 'inDegrees', this indicates whether rotational values are in degrees (yes) or radians (no).

endheader
time	pelvis_tilt	pelvis_tx	pelvis_ty	hip_flexion_l	hip_flexion_r	knee_angle_l	knee_angle_r	ankle_angle_l	ankle_angle_r	lumbar
     24.90000000	     15.85622940	     -0.06775847	      0.73246662	     58.06735072	     58.06735072	    -76.76255421	    -76.76255421	      0.52028413	      0.52028413	    -32.29910882
     24.91000000	     15.85559516	     -0.06777513	      0.73246749	     58.06725752	     58.06725752	    -76.76256298	    -76.76256298	      0.52048773	      0.52048773	    -32.29947091
     24.92000000	     15.85112001	     -0.06779845	      0.73249036	     58.06787518	     58.06787518	    -76.76189188	    -76.76189188	      0.52193425	      0.52193425	    -32.30438844
     24.93000000	     15.84269064	     -0.06791183	      0.73248984	     58.08164270	     58.08164270	    -76.74707561	    -76.74707561	      0.53925706	      0.53925706	    -32.34023845
     24.94000000	     15.84206889	     -0.06791065	      0.73249788	     58.08160313	     58.08160313	    -76.74702957	    -76.74702957	      0.53945636	      0.53945636	    -32.34065588
     24.95000000	     15.83044990	     -0.06799751	      0.73250810	     58.09367920	     58.09367920	    -76.73521211	    -76.73521211	      0.55389540	      0.55389540	    -32.37343973
     24.96000000	     15.82412971	     -0.06796843	      0.73253478	     58.09305117	     58.09305117	    -76.73526593	    -76.73526593	      0.55506778	      0.55506778	    -32.37720624
     24.97000000	     15.81096922	     -0.06806625	      0.73253859	     58.11075731	     58.11075731	    -76.72360768	    -76.72360768	      0.57013641	      0.57013641	    -32.41854136
     24.98000000	     15.79657115	     -0.06812113	      0.73255017	     58.12409672	     58.12409672	    -76.71453916	    -76.71453916	      0.59077721	      0.59077721	    -32.44999400
     24.99000000	     15.76975366	     -0.06809549	      0.73251502	     58.14653829	     58.14653829	    -76.72598994	    -76.72598994	      0.89403132	      0.89403132	    -32.45925157
     25.00000000	     15.75358259	     -0.06813423	      0.73251661	     58.16518895	     58.16518895	    -76.72267286	    -76.72267286	      0.89604554	      0.89604554	    -32.50793196
     25.01000000	     15.73389079	     -0.06817163	      0.73251965	     58.18559064	     58.18559064	    -76.71882705	    -76.71882705	      0.89929308	      0.89929308	    -32.56188554
     25.02000000	     15.71076926	     -0.06820716	      0.73252338	     58.20843949	     58.20843949	    -76.71474933	    -76.71474933	      0.90389805	      0.90389805	    -32.62350947
     25.03000000	     15.68442090	     -0.06823917	      0.73252358	     58.23496075	     58.23496075	    -76.71024909	    -76.71024909	      0.90995722	      0.90995722	    -32.69611720
     25.04000000	     15.65485773	     -0.06826813	      0.73252268	     58.26443849	     58.26443849	    -76.70552455	    -76.70552455	      0.91731747	      0.91731747	    -32.77930023
     25.05000000	     15.62206845	     -0.06829361	      0.73252157	     58.29677043	     58.29677043	    -76.70046804	    -76.70046804	      0.92593372	      0.92593372	    -32.87359711
     25.06000000	     15.58610332	     -0.06833054	      0.73252143	     58.33387449	     58.33387449	    -76.69433655	    -76.69433655	      0.93601136	      0.93601136	    -32.98317292
     25.07000000	     15.54677201	     -0.06834484	      0.73252109	     58.37171977	     58.37171977	    -76.68803379	    -76.68803379	      0.94754904	      0.94754904	    -33.10121137
     25.08000000	     15.50386419	     -0.06835814	      0.73252640	     58.41208207	     58.41208207	    -76.68072281	    -76.68072281	      0.96038084	      0.96038084	    -33.23075792
     25.09000000	     15.45717989	     -0.06836014	      0.73253406	     58.45479244	     58.45479244	    -76.67230838	    -76.67230838	      0.97458637	      0.97458637	    -33.37153809
     25.10000000	     15.40646515	     -0.06835741	      0.73254577	     58.50028753	     58.50028753	    -76.66265973	    -76.66265973	      0.99013565	      0.99013565	    -33.52385784
     25.11000000	     15.35109561	     -0.06833370	      0.73256485	     58.54587791	     58.54587791	    -76.65275323	    -76.65275323	      1.00646175	      1.00646175	    -33.68137765
     25.12000000	     15.29092602	     -0.06831235	      0.73257978	     58.59799855	     58.59799855	    -76.64090765	    -76.64090765	      1.02401248	      1.02401248	    -33.85551716
     25.13000000	     15.22550588	     -0.06828035	      0.73259442	     58.65419534	     58.65419534	    -76.62816092	    -76.62816092	      1.04273196	      1.04273196	    -34.04086904
     25.14000000	     15.15439018	     -0.06823535	      0.73260770	     58.71499889	     58.71499889	    -76.61473702	    -76.61473702	      1.06251150	      1.06251150	    -34.23732593
     25.15000000	     15.07722099	     -0.06817399	      0.73261924	     58.78080936	     58.78080936	    -76.60087468	    -76.60087468	      1.08325558	      1.08325558	    -34.44477318
     25.16000000	     14.99372520	     -0.06809210	      0.73262946	     58.85183361	     58.85183361	    -76.58673136	    -76.58673136	      1.10489894	      1.10489894	    -34.66305077
     25.17000000	     14.90369233	     -0.06798599	      0.73263895	     58.92815889	     58.92815889	    -76.57238508	    -76.57238508	      1.12741788	      1.12741788	    -34.89203425
     25.18000000	     14.80691884	     -0.06785286	      0.73264857	     59.00981126	     59.00981126	    -76.55783138	    -76.55783138	      1.15087166	      1.15087166	    -35.13159572
     25.19000000	     14.70317785	     -0.06769053	      0.73265880	     59.09683639	     59.09683639	    -76.54305282	    -76.54305282	      1.17553357	      1.17553357	    -35.38159356
     25.20000000	     14.58780617	     -0.06745855	      0.73263947	     59.19411541	     59.19411541	    -76.55177807	    -76.55177807	      1.49305608	      1.49305608	    -35.62676402
     25.21000000	     14.47045154	     -0.06724784	      0.73266056	     59.29038009	     59.29038009	    -76.53420804	    -76.53420804	      1.49947199	      1.49947199	    -35.89983886
     25.22000000	     14.34558540	     -0.06699100	      0.73267372	     59.39257443	     59.39257443	    -76.51616080	    -76.51616080	      1.50711003	      1.50711003	    -36.18375430
     25.23000000	     14.21253286	     -0.06671970	      0.73269125	     59.50096200	     59.50096200	    -76.49755317	    -76.49755317	      1.51593033	      1.51593033	    -36.47784687
     25.24000000	     14.06411110	     -0.06642252	      0.73269007	     59.62416263	     59.62416263	    -76.47814233	    -76.47814233	      1.52965567	      1.52965567	    -36.77373927
     25.25000000	     13.90602953	     -0.06610216	      0.73268881	     59.75499742	     59.75499742	    -76.45822257	    -76.45822257	      1.54392188	      1.54392188	    -37.08074768
     25.26000000	     13.73684295	     -0.06575675	      0.73268394	     59.89487752	     59.89487752	    -76.43707304	    -76.43707304	      1.55928204	      1.55928204	    -37.39691653
     25.27000000	     13.55461317	     -0.06538051	      0.73267401	     60.04542207	     60.04542207	    -76.41442341	    -76.41442341	      1.57632109	      1.57632109	    -37.72031610
     25.28000000	     13.35806456	     -0.06496865	      0.73265975	     60.20752886	     60.20752886	    -76.39019599	    -76.39019599	      1.59535794	      1.59535794	    -38.04969328
     25.29000000	     13.14674027	     -0.06451744	      0.73264299	     60.38132673	     60.38132673	    -76.36445524	    -76.36445524	      1.61643978	      1.61643978	    -38.38477473
     25.30000000	     12.92067721	     -0.06402352	      0.73262581	     60.56650625	     60.56650625	    -76.33729010	    -76.33729010	      1.63944928	      1.63944928	    -38.72586612
     25.31000000	     12.24126085	     -0.06324199	      0.73148228	     61.31124175	     61.31124175	    -76.39302593	    -76.39302593	      1.80234555	      1.80234555	    -38.50945227
     25.32000000	     12.03532839	     -0.06267102	      0.73157504	     61.46107462	     61.46107462	    -76.36350913	    -76.36350913	      1.81273767	      1.81273767	    -38.92354312
     25.33000000	     11.80975375	     -0.06205734	      0.73166760	     61.62543133	     61.62543133	    -76.32774523	    -76.32774523	      1.82626509	      1.82626509	    -39.33988761
     25.34000000	     11.56030702	     -0.06137206	      0.73174391	     61.80766026	     61.80766026	    -76.28634457	    -76.28634457	      1.84374694	      1.84374694	    -39.75122101
     25.35000000	     10.87391796	     -0.06047737	      0.73077409	     62.51803874	     62.51803874	    -76.29546786	    -76.29546786	      1.96152405	      1.96152405	    -39.63727727
     25.36000000	     10.63063229	     -0.05971819	      0.73092818	     62.68643993	     62.68643993	    -76.26135650	    -76.26135650	      1.97304760	      1.97304760	    -40.10508621
     25.37000000	     10.35902098	     -0.05889271	      0.73107476	     62.87290940	     62.87290940	    -76.21417483	    -76.21417483	      1.98955105	      1.98955105	    -40.56321966
     25.38000000	     10.05778699	     -0.05799361	      0.73120851	     63.08020271	     63.08020271	    -76.15844089	    -76.15844089	      2.01173866	      2.01173866	    -41.00836284
     25.39000000	      9.11916357	     -0.05683790	      0.72977911	     64.06454543	     64.06454543	    -76.18761306	    -76.18761306	      2.19738826	      2.19738826	    -40.67249144
     25.40000000	      8.84113318	     -0.05583853	      0.73003953	     64.23761186	     64.23761186	    -76.14243367	    -76.14243367	      2.21021844	      2.21021844	    -41.19752438
     25.41000000	      8.52882782	     -0.05476095	      0.73030858	     64.42829108	     64.42829108	    -76.07928197	    -76.07928197	      2.23162561	      2.23162561	    -41.70391765
     25.42000000	      8.18274982	     -0.05359399	      0.73056950	     64.64113595	     64.64113595	    -76.00652644	    -76.00652644	      2.26282434	      2.26282434	    -42.19293979
     25.43000000	      7.29006080	     -0.05224789	      0.72953211	     65.50258215	     65.50258215	    -75.97621073	    -75.97621073	      2.54889980	      2.54889980	    -42.02970133
     25.44000000	      6.96307856	     -0.05092345	      0.72988944	     65.69201355	     65.69201355	    -75.93317635	    -75.93317635	      2.56817229	      2.56817229	    -42.58677258
     25.45000000	      6.21319153	     -0.04947755	      0.72934250	     66.34519747	     66.34519747	    -75.86605936	    -75.86605936	      2.82109640	      2.82109640	    -42.65577529
     25.46000000	      5.86545848	     -0.04799043	      0.72974805	     66.54002095	     66.54002095	    -75.82265376	    -75.82265376	      2.84176038	      2.84176038	    -43.23274106
     25.47000000	      5.03655716	     -0.04640564	      0.72911944	     67.26242956	     67.26242956	    -75.74656049	    -75.74656049	      3.12661580	      3.12661580	    -43.25267734
     25.48000000	      4.65966253	     -0.04477345	      0.72955895	     67.46725200	     67.46725200	    -75.69710242	    -75.69710242	      3.15104590	      3.15104590	    -43.84191620
     25.49000000	      3.73303780	     -0.04306479	      0.72877285	     68.29135755	     68.29135755	    -75.62445393	    -75.62445393	      3.46092900	      3.46092900	    -43.78140438
     25.50000000	      2.99674303	     -0.04129577	      0.72845845	     68.89416125	     68.89416125	    -75.56817412	    -75.56817412	      3.66282618	      3.66282618	    -43.96915925
     25.51000000	      2.28379562	     -0.03946392	      0.72828590	     69.44980811	     69.44980811	    -75.49092508	    -75.49092508	      3.82589598	      3.82589598	    -44.21005687
     25.52000000	      1.50774081	     -0.03753141	      0.72801805	     70.07087343	     70.07087343	    -75.41781916	    -75.41781916	      4.01126584	      4.01126584	    -44.38393145
     25.53000000	      0.71251722	     -0.03547348	      0.72775573	     70.70680677	     70.70680677	    -75.35574919	    -75.35574919	      4.20771533	      4.20771533	    -44.54036957
